<?xml version="1.0" encoding="UTF-8"?>
<svg id="Layer_2" data-name="Layer 2" xmlns="http://www.w3.org/2000/svg" viewBox="0 0 220 220">
  <defs>
    <style>
      .cls-1 {
        fill: none;
      }

      .cls-2 {
        fill: #fff;
      }
    </style>
  </defs>
  <g id="Layer_1-2" data-name="Layer 1">
    <circle class="cls-1" cx="110" cy="110" r="110"/>
    <g>
      <path class="cls-2" d="m78.19,49l-7.15,4.31,1.12,5.14-3.09,1.86-4.31-22.31,2.88-1.74,17.65,14.26-3.1,1.87-4.02-3.39Zm-7.81,1.24l5.41-3.26-7.35-6.2-.08.05,2.02,9.42Z"/>
      <path class="cls-2" d="m86.6,50.31l-5.47-20.62,6.85-1.82c2.28-.61,4.19-.61,5.73,0,1.53.6,2.55,1.83,3.04,3.7.25.93.2,1.84-.14,2.72s-.94,1.62-1.8,2.24c1.3-.05,2.4.29,3.3,1.02.9.73,1.51,1.7,1.83,2.9.51,1.93.27,3.57-.73,4.91-1,1.34-2.61,2.31-4.84,2.9l-7.77,2.06Zm.28-12.85l3.79-1.01c1.07-.28,1.84-.76,2.33-1.43.48-.67.6-1.47.36-2.39-.27-1.02-.8-1.69-1.58-2.01-.78-.32-1.8-.32-3.06.02l-3.41.9,1.57,5.92Zm.68,2.56l1.75,6.61,4.33-1.15c1.19-.32,2.03-.83,2.53-1.54.5-.71.61-1.58.34-2.61-.29-1.09-.78-1.87-1.48-2.33-.7-.46-1.62-.54-2.76-.24l-4.71,1.25Z"/>
      <path class="cls-2" d="m120.9,37.87c-.08,2.61-.96,4.74-2.64,6.41-1.69,1.67-3.83,2.46-6.44,2.38-2.56-.08-4.61-.99-6.15-2.75-1.55-1.76-2.28-3.94-2.2-6.55l.11-3.84c.08-2.6.94-4.73,2.59-6.4,1.65-1.67,3.74-2.47,6.29-2.39,2.61.08,4.7,1,6.29,2.77s2.34,3.95,2.27,6.54l-.11,3.84Zm-3.43-3.97c.05-1.78-.38-3.25-1.3-4.42-.92-1.17-2.19-1.78-3.81-1.83-1.56-.05-2.81.49-3.75,1.6-.94,1.12-1.44,2.56-1.49,4.34l-.11,3.87c-.05,1.8.36,3.28,1.23,4.46.87,1.17,2.1,1.78,3.67,1.83,1.63.05,2.93-.48,3.91-1.6.98-1.11,1.49-2.57,1.54-4.38l.11-3.87Z"/>
      <path class="cls-2" d="m145.37,32.24l-4.62,13.53c-.76,2.24-2.08,3.7-3.95,4.4-1.87.7-3.98.64-6.34-.16-2.31-.79-3.98-2.03-5-3.72-1.02-1.69-1.15-3.65-.39-5.88l4.62-13.53,3.37,1.15-4.62,13.52c-.48,1.41-.45,2.61.1,3.59s1.5,1.7,2.84,2.16c1.39.47,2.61.5,3.68.07s1.84-1.35,2.32-2.76l4.62-13.52,3.37,1.15Z"/>
      <path class="cls-2" d="m163.56,47.18l-5.29-3.68-10.54,15.17-2.92-2.03,10.54-15.17-5.29-3.68,1.63-2.35,13.51,9.38-1.63,2.35Z"/>
      <path class="cls-2" d="m178.75,111.98l-.27-8.34-5.03-1.54-.12-3.6,21.57,7.15.11,3.37-21.07,8.43-.12-3.62,4.92-1.84Zm2.74-7.42l.2,6.31,9.01-3.38v-.09s-9.21-2.84-9.21-2.84Z"/>
      <path class="cls-2" d="m173.51,118.69l20.67,5.26-1.75,6.87c-.58,2.29-1.51,3.96-2.78,5.01-1.27,1.05-2.84,1.33-4.71.86-.94-.24-1.71-.72-2.31-1.45-.6-.73-.96-1.61-1.08-2.66-.59,1.16-1.42,1.96-2.5,2.39-1.08.43-2.22.49-3.42.19-1.94-.49-3.25-1.5-3.94-3.03-.69-1.53-.74-3.4-.18-5.64l1.98-7.79Zm8.52,5.84l-6.63-1.69-1.11,4.34c-.3,1.19-.26,2.18.11,2.96.38.78,1.08,1.3,2.11,1.57,1.1.28,2.01.22,2.76-.16.74-.39,1.26-1.15,1.55-2.3l1.2-4.73Zm2.57.65l-.97,3.8c-.27,1.07-.23,1.98.12,2.73.35.75.99,1.24,1.91,1.48,1.02.26,1.86.13,2.53-.4s1.15-1.42,1.47-2.68l.87-3.42-5.93-1.51Z"/>
      <path class="cls-2" d="m167.63,154.73c-2.23-1.34-3.67-3.16-4.29-5.44-.63-2.28-.27-4.54,1.08-6.78,1.32-2.19,3.12-3.53,5.41-4.02,2.29-.49,4.55-.06,6.79,1.29l3.29,1.98c2.23,1.34,3.67,3.13,4.32,5.39.65,2.25.32,4.47-.99,6.66-1.34,2.23-3.17,3.61-5.49,4.13-2.32.52-4.59.11-6.82-1.23l-3.29-1.98Zm5.14-1.05c1.52.92,3.02,1.26,4.49,1.03,1.47-.23,2.62-1.04,3.46-2.42.8-1.34.95-2.69.44-4.06s-1.53-2.51-3.05-3.42l-3.32-1.99c-1.54-.93-3.04-1.29-4.49-1.11-1.45.19-2.58.95-3.39,2.3-.84,1.4-1.01,2.79-.52,4.19.49,1.4,1.51,2.56,3.06,3.49l3.31,1.99Z"/>
      <path class="cls-2" d="m160.6,178.81l-9.55-10.64c-1.58-1.76-2.22-3.62-1.91-5.59.3-1.97,1.38-3.79,3.23-5.45,1.82-1.63,3.71-2.48,5.69-2.55,1.97-.07,3.75.78,5.32,2.53l9.55,10.64-2.65,2.38-9.54-10.63c-1-1.11-2.06-1.67-3.19-1.66-1.13,0-2.22.48-3.27,1.42-1.09.98-1.71,2.04-1.85,3.18s.28,2.27,1.28,3.38l9.54,10.63-2.65,2.38Z"/>
      <path class="cls-2" d="m138.71,187.42l5.79-2.83-8.13-16.59,3.2-1.57,8.13,16.59,5.79-2.83,1.26,2.57-14.77,7.24-1.26-2.57Z"/>
      <path class="cls-2" d="m74.7,169.05l7.41,3.84,3.8-3.64,3.2,1.66-16.77,15.33-2.99-1.55,2.94-22.5,3.21,1.67-.8,5.2Zm5.13,6.01l-5.6-2.91-1.45,9.51.08.04,6.98-6.65Z"/>
      <path class="cls-2" d="m71.43,161.19l-14.69,15.46-5.14-4.88c-1.71-1.63-2.72-3.25-3.01-4.87s.22-3.13,1.56-4.53c.67-.7,1.46-1.14,2.39-1.3.93-.17,1.88-.05,2.85.36-.73-1.08-1.01-2.2-.86-3.35s.65-2.17,1.51-3.07c1.38-1.45,2.9-2.1,4.57-1.96,1.67.15,3.33,1.01,5,2.6l5.83,5.54Zm-11.09,6.5l-2.85-2.7c-.8-.76-1.61-1.17-2.44-1.23s-1.57.25-2.22.95c-.73.76-1.02,1.57-.89,2.4.13.84.67,1.7,1.62,2.6l2.56,2.43,4.22-4.44Zm1.83-1.92l4.71-4.96-3.25-3.09c-.89-.85-1.77-1.3-2.64-1.35s-1.67.31-2.4,1.08c-.78.82-1.18,1.65-1.21,2.48-.03.83.39,1.66,1.25,2.47l3.54,3.36Z"/>
      <path class="cls-2" d="m42.83,138.5c2.26-1.3,4.54-1.67,6.84-1.1s4.1,1.98,5.4,4.24c1.28,2.22,1.57,4.45.88,6.68-.69,2.24-2.17,4.01-4.42,5.31l-3.33,1.91c-2.25,1.29-4.52,1.68-6.81,1.15s-4.06-1.9-5.33-4.11c-1.3-2.26-1.61-4.53-.94-6.81.67-2.28,2.13-4.07,4.39-5.36l3.33-1.91Zm-1.58,5c-1.54.89-2.57,2.03-3.08,3.42-.52,1.39-.37,2.79.44,4.2.78,1.35,1.89,2.14,3.33,2.36s2.94-.12,4.48-1l3.35-1.93c1.56-.9,2.61-2.02,3.15-3.38.54-1.36.42-2.72-.36-4.08-.81-1.41-1.95-2.25-3.41-2.49-1.46-.25-2.97.08-4.54.98l-3.35,1.93Z"/>
      <path class="cls-2" d="m25.24,120.56l13.95-3.13c2.31-.52,4.25-.16,5.82,1.07,1.57,1.23,2.63,3.06,3.17,5.49.53,2.38.35,4.45-.56,6.21s-2.51,2.89-4.81,3.4l-13.95,3.13-.78-3.47,13.94-3.13c1.46-.33,2.46-.98,3.01-1.97.55-.98.67-2.17.36-3.55-.32-1.43-.94-2.49-1.87-3.17-.92-.68-2.11-.86-3.57-.54l-13.94,3.13-.78-3.47Z"/>
      <path class="cls-2" d="m28.42,97.28l-.35,6.44,18.44,1-.19,3.55-18.45-1-.35,6.44-2.85-.15.89-16.43,2.85.15Z"/>
    </g>
  </g>
</svg>