<?xml version="1.0" encoding="UTF-8"?>
<svg id="Layer_2" data-name="Layer 2" xmlns="http://www.w3.org/2000/svg" viewBox="0 0 220 220">
  <g id="Layer_1-2" data-name="Layer 1">
    <path d="m110,0C49.25,0,0,49.25,0,110s49.25,110,110,110,110-49.25,110-110S170.75,0,110,0Zm16.68,111.34l-11.1,11.1c-.4.4-.87.58-1.38.58s-1.02-.22-1.38-.58c-.76-.73-.76-1.96,0-2.72l7.76-7.8h-25.93c-1.05,0-1.92-.87-1.92-1.92s.87-1.92,1.92-1.92h25.96l-7.8-7.8c-.76-.73-.76-1.96,0-2.72.73-.76,1.96-.76,2.72,0l11.06,11.06c.36.36.58.87.65,1.34,0,.51-.22,1.02-.58,1.38Z"/>
  </g>
</svg>