<?xml version="1.0" encoding="utf-8"?>
<!-- Generator: Adobe Illustrator 27.5.0, SVG Export Plug-In . SVG Version: 6.00 Build 0)  -->
<svg version="1.1" id="Layer_2_00000137103954064766836150000002433544290149020606_"
	 xmlns="http://www.w3.org/2000/svg" xmlns:xlink="http://www.w3.org/1999/xlink" x="0px" y="0px" viewBox="0 0 216.6 216.6"
	 style="enable-background:new 0 0 216.6 216.6;" xml:space="preserve">
<g id="Layer_1-2">
	<path d="M205.8,148.9c0,4.4-1.4,8.9-4.1,13.4c-4.1,8.6-10.6,12.8-19.5,12.8c-5.1,0-10.6-1.7-16.4-5.1c-5.1-2.7-10-6.5-14.6-11.3
		c-4.6-4.8-11.2-12.3-19.8-22.6c-11.3-13-18.3-21.1-21.1-24.1c2.7,8.2,5.8,16.6,9.2,25.2c5.1,14.4,8.7,25.1,10.8,32.1
		c2.1,7,3.1,13.6,3.1,19.8c0,9.6-2.5,16.6-7.4,21.1c-5,4.4-10.9,6.7-17.7,6.7s-12.7-2.2-17.4-6.7c-4.8-4.4-7.2-11.5-7.2-21.1
		c0-6.2,1-12.8,3.1-20c2.1-7.2,5.5-17.3,10.3-30.3l9.8-27.2c-5.8,6.2-12.8,14.4-21.1,24.6c-6.2,7.2-12.2,13.9-18.2,20.3
		c-6,6.3-11.4,11-16.2,14.1c-5.1,3.1-10.6,4.6-16.4,4.6c-8.6,0-15.4-4.1-20.5-12.3c-2.4-4.8-3.6-9.1-3.6-12.8
		c0-8.9,5.1-16.4,15.4-22.6c5.1-3.1,11-5.4,17.7-6.9s16.7-3.5,30-5.9c15.4-2.4,25.8-4.3,31.3-5.7c-6.8-1.4-17.3-3.2-31.3-5.7
		c-12.7-2.1-22.6-4-29.8-5.9c-7.2-1.9-13.4-4.4-18.5-7.4c-9.9-6.2-14.9-13.7-14.9-22.6c0-4.4,1.2-8.7,3.6-12.8
		c4.8-8.5,11.5-12.8,20-12.8c5.1,0,10.6,1.7,16.4,5.1c5.5,3.4,11,8,16.4,13.6c5.5,5.7,12.3,13.4,20.5,23.3
		c4.1,5.1,10.3,12.5,18.5,22.1L96,76.5c-4.4-13-7.7-22.9-9.8-29.8c-2.1-6.8-3.1-13.2-3.1-19c0-9.6,2.5-16.6,7.4-21
		c5-4.4,10.9-6.7,17.7-6.7s12.7,2.2,17.5,6.7c4.8,4.4,7.2,11.5,7.2,21c0,5.8-0.9,12-2.8,18.5c-1.9,6.5-5.1,15.6-9.5,27.2
		c-1.4,3.8-3,8.1-4.9,13.1c-1.9,5-3.8,11-5.9,18.2l22.1-25.2c8.2-9.9,14.6-17.3,19.2-22.1s9.3-8.5,14.1-11.3
		c5.1-3.1,10.6-4.6,16.4-4.6c4.4,0,8.4,1.2,11.8,3.6c3.4,2.4,6.2,5.3,8.2,8.7c2.7,4.5,4.1,8.9,4.1,13.4c0,9.2-5.1,16.6-15.4,22.1
		c-5.1,3.1-11,5.4-17.7,6.9c-6.7,1.5-16.9,3.5-30.5,5.9c-16.1,2.7-26.2,4.6-30.3,5.7c5.5,1.4,15.6,3.3,30.3,5.7
		c14.7,2.7,25.1,4.9,31.3,6.4s11.8,3.8,16.9,6.9C200.7,132.3,205.8,139.6,205.8,148.9L205.8,148.9z"/>
</g>
</svg>
